<mxfile host="Electron" agent="Mozilla/5.0 (Windows NT 10.0; Win64; x64) AppleWebKit/537.36 (KHTML, like Gecko) draw.io/28.0.6 Chrome/138.0.7204.100 Electron/37.2.3 Safari/537.36" version="28.0.6">
  <diagram name="第 1 页" id="pdBw4bE9rix9GdB20xyy">
    <mxGraphModel dx="1011" dy="690" grid="1" gridSize="10" guides="1" tooltips="1" connect="1" arrows="1" fold="1" page="1" pageScale="1" pageWidth="827" pageHeight="1169" math="0" shadow="0">
      <root>
        <mxCell id="0" />
        <mxCell id="1" parent="0" />
        <mxCell id="76tiINdfcy8DZ_h18BUb-5" value="" style="edgeStyle=orthogonalEdgeStyle;rounded=0;orthogonalLoop=1;jettySize=auto;html=1;" edge="1" parent="1" source="76tiINdfcy8DZ_h18BUb-1" target="76tiINdfcy8DZ_h18BUb-4">
          <mxGeometry relative="1" as="geometry" />
        </mxCell>
        <mxCell id="76tiINdfcy8DZ_h18BUb-1" value="" style="rounded=0;whiteSpace=wrap;html=1;" vertex="1" parent="1">
          <mxGeometry x="60" y="310" width="120" height="260" as="geometry" />
        </mxCell>
        <mxCell id="76tiINdfcy8DZ_h18BUb-2" value="Actor" style="shape=umlActor;verticalLabelPosition=bottom;verticalAlign=top;html=1;outlineConnect=0;" vertex="1" parent="1">
          <mxGeometry x="77.5" y="340" width="85" height="170" as="geometry" />
        </mxCell>
        <mxCell id="76tiINdfcy8DZ_h18BUb-7" value="" style="edgeStyle=orthogonalEdgeStyle;rounded=0;orthogonalLoop=1;jettySize=auto;html=1;" edge="1" parent="1" source="76tiINdfcy8DZ_h18BUb-4" target="76tiINdfcy8DZ_h18BUb-6">
          <mxGeometry relative="1" as="geometry" />
        </mxCell>
        <mxCell id="76tiINdfcy8DZ_h18BUb-4" value="&lt;font style=&quot;font-size: 20px;&quot;&gt;输入学生学号&lt;/font&gt;" style="whiteSpace=wrap;html=1;rounded=0;" vertex="1" parent="1">
          <mxGeometry x="220" y="410" width="140" height="60" as="geometry" />
        </mxCell>
        <mxCell id="76tiINdfcy8DZ_h18BUb-9" value="" style="edgeStyle=orthogonalEdgeStyle;rounded=0;orthogonalLoop=1;jettySize=auto;html=1;" edge="1" parent="1" source="76tiINdfcy8DZ_h18BUb-6" target="76tiINdfcy8DZ_h18BUb-8">
          <mxGeometry relative="1" as="geometry" />
        </mxCell>
        <mxCell id="76tiINdfcy8DZ_h18BUb-12" value="" style="edgeStyle=orthogonalEdgeStyle;rounded=0;orthogonalLoop=1;jettySize=auto;html=1;" edge="1" parent="1" source="76tiINdfcy8DZ_h18BUb-6" target="76tiINdfcy8DZ_h18BUb-11">
          <mxGeometry relative="1" as="geometry" />
        </mxCell>
        <mxCell id="76tiINdfcy8DZ_h18BUb-6" value="学生存在" style="rhombus;whiteSpace=wrap;html=1;rounded=0;fontSize=20;" vertex="1" parent="1">
          <mxGeometry x="414" y="385" width="110" height="110" as="geometry" />
        </mxCell>
        <mxCell id="76tiINdfcy8DZ_h18BUb-8" value="提示学生不存在" style="whiteSpace=wrap;html=1;fontSize=20;rounded=0;" vertex="1" parent="1">
          <mxGeometry x="409" y="550" width="120" height="60" as="geometry" />
        </mxCell>
        <mxCell id="76tiINdfcy8DZ_h18BUb-10" value="no" style="text;html=1;align=center;verticalAlign=middle;resizable=0;points=[];autosize=1;strokeColor=none;fillColor=none;" vertex="1" parent="1">
          <mxGeometry x="420" y="508" width="40" height="30" as="geometry" />
        </mxCell>
        <mxCell id="76tiINdfcy8DZ_h18BUb-11" value="计算学生平均分" style="whiteSpace=wrap;html=1;fontSize=20;rounded=0;" vertex="1" parent="1">
          <mxGeometry x="599" y="410" width="120" height="60" as="geometry" />
        </mxCell>
        <mxCell id="76tiINdfcy8DZ_h18BUb-13" value="yes" style="text;html=1;align=center;verticalAlign=middle;resizable=0;points=[];autosize=1;strokeColor=none;fillColor=none;" vertex="1" parent="1">
          <mxGeometry x="540" y="410" width="40" height="30" as="geometry" />
        </mxCell>
      </root>
    </mxGraphModel>
  </diagram>
</mxfile>
